<svg id="Layer_1" data-name="Layer 1" xmlns="http://www.w3.org/2000/svg" viewBox="0 0 32 32"><defs><style>.cls-1{fill:#c53b60;}.cls-2{fill:#c1c8d1;}</style></defs><path class="cls-1" d="M8,15.58l4.77-4.77a.6.6,0,0,1,.84,0l.56.55a.6.6,0,0,1,0,.84L10.37,16l3.79,3.8a.6.6,0,0,1,0,.84l-.56.55a.6.6,0,0,1-.84,0L8,16.42A.6.6,0,0,1,8,15.58Z"/><path class="cls-1" d="M24,15.58l-4.77-4.77a.6.6,0,0,0-.84,0l-.56.55a.6.6,0,0,0,0,.84L21.63,16l-3.79,3.8a.6.6,0,0,0,0,.84l.56.55a.6.6,0,0,0,.84,0L24,16.42A.6.6,0,0,0,24,15.58Z"/><path class="cls-2" d="M31.93,15A7.91,7.91,0,0,0,30,11a61.61,61.61,0,0,0-4.33-4.59l-.1-.1A61.61,61.61,0,0,0,21,2,7.91,7.91,0,0,0,17,.07a7.74,7.74,0,0,0-2,0A7.91,7.91,0,0,0,11,2,61.61,61.61,0,0,0,6.41,6.31l-.1.1A61.61,61.61,0,0,0,2,11,7.91,7.91,0,0,0,.07,15a7.74,7.74,0,0,0,0,2A7.91,7.91,0,0,0,2,21a61.61,61.61,0,0,0,4.33,4.59l.1.1A61.61,61.61,0,0,0,11,30a7.91,7.91,0,0,0,4,1.91,7.74,7.74,0,0,0,2,0A7.91,7.91,0,0,0,21,30a61.61,61.61,0,0,0,4.59-4.33l.1-.1A61.61,61.61,0,0,0,30,21a7.91,7.91,0,0,0,1.91-4A7.74,7.74,0,0,0,31.93,15Zm-2.16,1.76a5.92,5.92,0,0,1-1.46,2.9c-.93,1.17-2.3,2.54-4.21,4.46s-3.29,3.28-4.46,4.21a5.92,5.92,0,0,1-2.9,1.46,6.11,6.11,0,0,1-1.48,0,5.92,5.92,0,0,1-2.9-1.46C11.19,27.38,9.82,26,7.9,24.1s-3.28-3.29-4.21-4.46a5.92,5.92,0,0,1-1.46-2.9,6.11,6.11,0,0,1,0-1.48,5.92,5.92,0,0,1,1.46-2.9C4.62,11.19,6,9.82,7.9,7.9s3.29-3.28,4.46-4.21a5.92,5.92,0,0,1,2.9-1.46,6.11,6.11,0,0,1,1.48,0,5.92,5.92,0,0,1,2.9,1.46c1.17.93,2.54,2.3,4.46,4.21s3.28,3.29,4.21,4.46a5.92,5.92,0,0,1,1.46,2.9A6.11,6.11,0,0,1,29.77,16.74Z"/></svg>