<svg id="Layer_1" data-name="Layer 1" xmlns="http://www.w3.org/2000/svg" viewBox="0 0 32 32"><defs><style>.cls-1{fill:#c1c8d1;}.cls-2{fill:#c53b60;}</style></defs><path class="cls-1" d="M25.59,6.31l.1.1A61.61,61.61,0,0,1,30,11a7.91,7.91,0,0,1,1.91,4,7.74,7.74,0,0,1,0,2A7.91,7.91,0,0,1,30,21a61.61,61.61,0,0,1-4.33,4.59l-.1.1A61.61,61.61,0,0,1,21,30a7.91,7.91,0,0,1-4,1.91,7.74,7.74,0,0,1-2,0A7.91,7.91,0,0,1,11,30a61.61,61.61,0,0,1-4.59-4.33l-.1-.1A61.61,61.61,0,0,1,2,21,7.91,7.91,0,0,1,.07,17a7.74,7.74,0,0,1,0-2A7.91,7.91,0,0,1,2,11,61.61,61.61,0,0,1,6.31,6.41l.1-.1A61.61,61.61,0,0,1,11,2,7.91,7.91,0,0,1,15,.07a7.74,7.74,0,0,1,2,0A7.91,7.91,0,0,1,21,2,61.61,61.61,0,0,1,25.59,6.31ZM19.64,3.69a5.92,5.92,0,0,0-2.9-1.46,6.11,6.11,0,0,0-1.48,0,5.92,5.92,0,0,0-2.9,1.46C11.19,4.62,9.82,6,7.9,7.9s-3.28,3.29-4.21,4.46a5.92,5.92,0,0,0-1.46,2.9,6.11,6.11,0,0,0,0,1.48,5.92,5.92,0,0,0,1.46,2.9C4.62,20.81,6,22.18,7.9,24.1s3.29,3.28,4.46,4.21a5.92,5.92,0,0,0,2.9,1.46,6.11,6.11,0,0,0,1.48,0,5.92,5.92,0,0,0,2.9-1.46c1.17-.93,2.54-2.3,4.46-4.21s3.28-3.29,4.21-4.46a5.92,5.92,0,0,0,1.46-2.9,6.11,6.11,0,0,0,0-1.48,5.92,5.92,0,0,0-1.46-2.9C27.38,11.19,26,9.82,24.1,7.9S20.81,4.62,19.64,3.69Z"/><path class="cls-2" d="M16,11.92V9.82a.71.71,0,0,0-.7-.7H9.7a.7.7,0,0,0-.7.7V21a.7.7,0,0,0,.7.7H22.3A.7.7,0,0,0,23,21v-8.4a.7.7,0,0,0-.7-.7Zm-4.2,8.4H10.4v-1.4h1.4Zm0-2.8H10.4v-1.4h1.4Zm0-2.8H10.4v-1.4h1.4Zm0-2.8H10.4v-1.4h1.4Zm2.8,8.4H13.2v-1.4h1.4Zm0-2.8H13.2v-1.4h1.4Zm0-2.8H13.2v-1.4h1.4Zm0-2.8H13.2v-1.4h1.4Zm7,8.4H16v-1.4h1.4v-1.4H16v-1.4h1.4v-1.4H16v-1.4h5.6Zm-1.4-5.6H18.8v1.4h1.4Zm0,2.8H18.8v1.4h1.4Z"/></svg>